<mxfile host="app.diagrams.net" agent="Mozilla/5.0 (X11; Linux x86_64; rv:143.0) Gecko/20100101 Firefox/143.0" version="28.2.5">
  <diagram name="第 1 页" id="DKbf9dmjsP7fvO9kBE2q">
    <mxGraphModel dx="1453" dy="887" grid="1" gridSize="10" guides="1" tooltips="1" connect="1" arrows="1" fold="1" page="1" pageScale="1" pageWidth="827" pageHeight="1169" math="0" shadow="0">
      <root>
        <mxCell id="0" />
        <mxCell id="1" parent="0" />
        <mxCell id="073cDV9OZKLBj1v4pkw0-8" value="" style="rounded=0;whiteSpace=wrap;html=1;" vertex="1" parent="1">
          <mxGeometry x="220" y="70" width="160" height="130" as="geometry" />
        </mxCell>
        <mxCell id="073cDV9OZKLBj1v4pkw0-1" value="" style="rounded=0;whiteSpace=wrap;html=1;" vertex="1" parent="1">
          <mxGeometry x="240" y="80" width="120" height="20" as="geometry" />
        </mxCell>
        <mxCell id="073cDV9OZKLBj1v4pkw0-2" value="" style="rounded=0;whiteSpace=wrap;html=1;" vertex="1" parent="1">
          <mxGeometry x="240" y="110" width="120" height="20" as="geometry" />
        </mxCell>
        <mxCell id="073cDV9OZKLBj1v4pkw0-3" value="" style="rounded=0;whiteSpace=wrap;html=1;" vertex="1" parent="1">
          <mxGeometry x="240" y="140" width="120" height="20" as="geometry" />
        </mxCell>
        <mxCell id="073cDV9OZKLBj1v4pkw0-4" value="" style="rounded=0;whiteSpace=wrap;html=1;" vertex="1" parent="1">
          <mxGeometry x="240" y="170" width="120" height="20" as="geometry" />
        </mxCell>
        <mxCell id="073cDV9OZKLBj1v4pkw0-5" value="" style="rounded=0;whiteSpace=wrap;html=1;" vertex="1" parent="1">
          <mxGeometry x="222.5" y="260" width="155" height="60" as="geometry" />
        </mxCell>
        <mxCell id="073cDV9OZKLBj1v4pkw0-10" value="" style="edgeStyle=orthogonalEdgeStyle;rounded=0;orthogonalLoop=1;jettySize=auto;html=1;entryX=0;entryY=0.5;entryDx=0;entryDy=0;exitX=0.5;exitY=0;exitDx=0;exitDy=0;" edge="1" parent="1" source="073cDV9OZKLBj1v4pkw0-18">
          <mxGeometry relative="1" as="geometry">
            <mxPoint x="140" y="200" as="sourcePoint" />
            <mxPoint x="240" y="90" as="targetPoint" />
            <Array as="points">
              <mxPoint x="140" y="90" />
            </Array>
          </mxGeometry>
        </mxCell>
        <mxCell id="073cDV9OZKLBj1v4pkw0-14" value="" style="edgeStyle=orthogonalEdgeStyle;rounded=0;orthogonalLoop=1;jettySize=auto;html=1;entryX=0;entryY=0.5;entryDx=0;entryDy=0;" edge="1" parent="1">
          <mxGeometry relative="1" as="geometry">
            <mxPoint x="170" y="70" as="sourcePoint" />
            <mxPoint x="240" y="10.039999999999996" as="targetPoint" />
            <Array as="points">
              <mxPoint x="170" y="180" />
              <mxPoint x="170" y="10.000000000000004" />
            </Array>
          </mxGeometry>
        </mxCell>
        <mxCell id="073cDV9OZKLBj1v4pkw0-15" value="" style="edgeStyle=orthogonalEdgeStyle;rounded=0;orthogonalLoop=1;jettySize=auto;html=1;entryX=0;entryY=0.5;entryDx=0;entryDy=0;" edge="1" parent="1">
          <mxGeometry relative="1" as="geometry">
            <mxPoint x="200" y="89.99" as="sourcePoint" />
            <mxPoint x="240" y="60.06999999999998" as="targetPoint" />
            <Array as="points">
              <mxPoint x="200" y="179.99" />
              <mxPoint x="200" y="59.989999999999995" />
            </Array>
          </mxGeometry>
        </mxCell>
        <mxCell id="073cDV9OZKLBj1v4pkw0-18" value="3" style="ellipse;whiteSpace=wrap;html=1;" vertex="1" parent="1">
          <mxGeometry x="130" y="180" width="20" height="20" as="geometry" />
        </mxCell>
        <mxCell id="073cDV9OZKLBj1v4pkw0-19" value="4" style="ellipse;whiteSpace=wrap;html=1;" vertex="1" parent="1">
          <mxGeometry x="160" y="180" width="20" height="20" as="geometry" />
        </mxCell>
        <mxCell id="073cDV9OZKLBj1v4pkw0-20" value="5" style="ellipse;whiteSpace=wrap;html=1;" vertex="1" parent="1">
          <mxGeometry x="190" y="180" width="20" height="20" as="geometry" />
        </mxCell>
      </root>
    </mxGraphModel>
  </diagram>
</mxfile>
